<mxfile host="app.diagrams.net" modified="2021-12-08T08:23:12.047Z" agent="5.0 (Macintosh; Intel Mac OS X 10_15_7) AppleWebKit/537.36 (KHTML, like Gecko) Chrome/96.0.4664.45 Safari/537.36" etag="NUB4XPZw6a_B5cM4lOex" version="15.9.1" type="github">
  <diagram id="9LfKU1AgzP_vaJB0GFqz" name="Page-1">
    <mxGraphModel dx="1426" dy="417" grid="1" gridSize="10" guides="1" tooltips="1" connect="1" arrows="1" fold="1" page="1" pageScale="1" pageWidth="827" pageHeight="1169" math="0" shadow="0">
      <root>
        <mxCell id="0" />
        <mxCell id="1" parent="0" />
        <mxCell id="fUsRwnkaToGctYEPGJHQ-4" value="" style="edgeStyle=orthogonalEdgeStyle;rounded=0;orthogonalLoop=1;jettySize=auto;html=1;" parent="1" source="fUsRwnkaToGctYEPGJHQ-2" target="fUsRwnkaToGctYEPGJHQ-3" edge="1">
          <mxGeometry relative="1" as="geometry" />
        </mxCell>
        <mxCell id="fUsRwnkaToGctYEPGJHQ-2" value="asas" style="rounded=1;whiteSpace=wrap;html=1;" parent="1" vertex="1">
          <mxGeometry x="190" y="220" width="120" height="60" as="geometry" />
        </mxCell>
        <mxCell id="fUsRwnkaToGctYEPGJHQ-6" value="" style="edgeStyle=orthogonalEdgeStyle;rounded=0;orthogonalLoop=1;jettySize=auto;html=1;" parent="1" source="fUsRwnkaToGctYEPGJHQ-3" target="fUsRwnkaToGctYEPGJHQ-5" edge="1">
          <mxGeometry relative="1" as="geometry" />
        </mxCell>
        <mxCell id="fUsRwnkaToGctYEPGJHQ-3" value="sdfasdf" style="rounded=1;whiteSpace=wrap;html=1;" parent="1" vertex="1">
          <mxGeometry x="390" y="220" width="120" height="60" as="geometry" />
        </mxCell>
        <mxCell id="fUsRwnkaToGctYEPGJHQ-5" value="asdgsdafgdsfgs" style="rounded=1;whiteSpace=wrap;html=1;" parent="1" vertex="1">
          <mxGeometry x="590" y="220" width="120" height="60" as="geometry" />
        </mxCell>
      </root>
    </mxGraphModel>
  </diagram>
</mxfile>
